<?xml version="1.0" encoding="UTF-8" standalone="no"?>
<!-- Created with Inkscape (http://www.inkscape.org/) -->

<svg
   version="1.1"
   id="svg182"
   width="573.11029"
   height="592.75024"
   viewBox="0 0 573.11029 592.75025"
   sodipodi:docname="person-with-loop.svg"
   inkscape:version="1.2.2 (732a01da63, 2022-12-09)"
   xmlns:inkscape="http://www.inkscape.org/namespaces/inkscape"
   xmlns:sodipodi="http://sodipodi.sourceforge.net/DTD/sodipodi-0.dtd"
   xmlns="http://www.w3.org/2000/svg"
   xmlns:svg="http://www.w3.org/2000/svg">
  <defs
     id="defs186">
    <clipPath
       clipPathUnits="userSpaceOnUse"
       id="clipPath200">
      <path
         d="M 0,500 H 750 V 0 H 0 Z"
         id="path198" />
    </clipPath>
    <clipPath
       clipPathUnits="userSpaceOnUse"
       id="clipPath578">
      <path
         d="M 0,500 H 750 V 0 H 0 Z"
         id="path576" />
    </clipPath>
    <clipPath
       clipPathUnits="userSpaceOnUse"
       id="clipPath594">
      <path
         d="M 0,500 H 750 V 0 H 0 Z"
         id="path592" />
    </clipPath>
    <clipPath
       clipPathUnits="userSpaceOnUse"
       id="clipPath606">
      <path
         d="M 0,500 H 750 V 0 H 0 Z"
         id="path604" />
    </clipPath>
    <clipPath
       clipPathUnits="userSpaceOnUse"
       id="clipPath634">
      <path
         d="m 370.942,138.794 h 15.81 v -33.671 h -15.81 z"
         id="path632" />
    </clipPath>
    <clipPath
       clipPathUnits="userSpaceOnUse"
       id="clipPath666">
      <path
         d="m 347.443,92.0274 h 29.55 V 73.5363 h -29.55 z"
         id="path664" />
    </clipPath>
    <clipPath
       clipPathUnits="userSpaceOnUse"
       id="clipPath724">
      <path
         d="M 0,500 H 750 V 0 H 0 Z"
         id="path722" />
    </clipPath>
    <clipPath
       clipPathUnits="userSpaceOnUse"
       id="clipPath748">
      <path
         d="M 0,500 H 750 V 0 H 0 Z"
         id="path746" />
    </clipPath>
    <clipPath
       clipPathUnits="userSpaceOnUse"
       id="clipPath868">
      <path
         d="m 559.514,183.908 h 51.427 V 97.7672 h -51.427 z"
         id="path866" />
    </clipPath>
    <clipPath
       clipPathUnits="userSpaceOnUse"
       id="clipPath900">
      <path
         d="m 454.661,288.983 h 9.927 v -57.379 h -9.927 z"
         id="path898" />
    </clipPath>
    <clipPath
       clipPathUnits="userSpaceOnUse"
       id="clipPath952">
      <path
         d="m 324.642,285.614 h 12.428 v -9.406 h -12.428 z"
         id="path950" />
    </clipPath>
    <clipPath
       clipPathUnits="userSpaceOnUse"
       id="clipPath1012">
      <path
         d="M 0,500 H 750 V 0 H 0 Z"
         id="path1010" />
    </clipPath>
    <clipPath
       clipPathUnits="userSpaceOnUse"
       id="clipPath1238">
      <path
         d="m 113.517,162.219 h 8.473 v -6.047 h -8.473 z"
         id="path1236" />
    </clipPath>
    <clipPath
       clipPathUnits="userSpaceOnUse"
       id="clipPath1270">
      <path
         d="m 110.169,167.783 h 8.206 v -5.531 h -8.206 z"
         id="path1268" />
    </clipPath>
  </defs>
  <sodipodi:namedview
     id="namedview184"
     pagecolor="#ffffff"
     bordercolor="#000000"
     borderopacity="0.25"
     inkscape:showpageshadow="2"
     inkscape:pageopacity="0.0"
     inkscape:pagecheckerboard="0"
     inkscape:deskcolor="#d1d1d1"
     showgrid="false"
     inkscape:zoom="0.86337736"
     inkscape:cx="141.30554"
     inkscape:cy="242.0726"
     inkscape:window-width="1920"
     inkscape:window-height="1017"
     inkscape:window-x="-8"
     inkscape:window-y="-8"
     inkscape:window-maximized="1"
     inkscape:current-layer="g190">
    <inkscape:page
       x="0"
       y="0"
       id="page188"
       width="573.11029"
       height="592.75024" />
  </sodipodi:namedview>
  <g
     id="g190"
     inkscape:groupmode="layer"
     inkscape:label="Page 1"
     transform="matrix(1.3333333,0,0,-1.3333333,-343.15872,622.46437)">
    <g
       id="g742">
      <g
         id="g744"
         clip-path="url(#clipPath748)">
        <g
           id="g750"
           transform="translate(341.3467,280.1803)">
          <path
             d="m 0,0 c 0.281,-0.628 5.919,-9.54 10.73,-11.897 4.81,-2.357 11.502,-6.553 14.632,-13.046 3.13,-6.492 5.006,-11.736 7.727,-11.422 2.722,0.315 0.322,-22.119 -4.845,-22.201 -5.167,-0.081 -15.063,3.407 -20.501,7.242 -5.438,3.834 -9.528,6.727 -12.853,10.707 -3.324,3.981 -1.667,6.743 -1.667,6.743 0,0 -3.747,3.123 -3.28,6.261 0.467,3.139 0.47,3.174 0.47,3.174 l -0.003,-0.035 c -2.06,1.845 -3.835,4.843 0.524,7.424 0,0 -6.307,3.46 -4.764,6.601 1.544,3.141 5.92,2.024 5.92,2.024 l 4.052,2.848 c 0,0 -1.439,1.63 0.03,4.768 C -2.358,2.328 0,0 0,0"
             style="fill:#ffc19d;fill-opacity:1;fill-rule:nonzero;stroke:none"
             id="path752" />
        </g>
        <g
           id="g754"
           transform="translate(378.0112,245.2518)">
          <path
             d="m 0,0 -4.656,2.958 -12.717,-30.138 5.533,-2.999 z"
             style="fill:#e1e1e1;fill-opacity:1;fill-rule:nonzero;stroke:none"
             id="path756" />
        </g>
        <g
           id="g758"
           transform="translate(361.8757,234.2506)">
          <path
             d="m 0,0 c -0.01,-0.029 -0.323,0.041 -0.863,0.248 -0.541,0.205 -1.296,0.582 -2.149,1.175 -1.716,1.168 -3.7,3.368 -5.039,6.244 -1.336,2.876 -1.914,5.692 -2.279,7.703 -0.352,2.022 -0.489,3.281 -0.423,3.293 0.076,0.014 0.342,-1.226 0.784,-3.22 0.455,-1.985 1.085,-4.75 2.39,-7.554 1.304,-2.8 3.175,-4.96 4.785,-6.169 C -1.189,0.486 0.04,0.093 0,0"
             style="fill:#ff9c6a;fill-opacity:1;fill-rule:nonzero;stroke:none"
             id="path760" />
        </g>
        <g
           id="g762"
           transform="translate(610.2782,115.7726)">
          <path
             d="M 0,0 -5.973,44.414 -133.377,34.173 c 0,0 -5.618,-21.751 -3.58,-48.249 0.258,-3.35 4.199,-37.124 9.289,-79.411 h 62.252 l -2.566,52.099 3.825,-0.83 c 0,0 5.444,-24.303 11.249,-50.996 l 62.973,-0.273 z"
             style="fill:#1a2e35;fill-opacity:1;fill-rule:nonzero;stroke:none"
             id="path764" />
        </g>
        <g
           id="g766"
           transform="translate(549.6615,101.5818)">
          <path
             d="m 0,0 c 0.026,-0.06 -0.659,-0.461 -1.95,-1.099 -1.295,-0.61 -3.198,-1.542 -5.785,-2.025 -1.291,-0.235 -2.76,-0.303 -4.304,-0.03 -1.533,0.272 -3.173,0.924 -4.501,2.16 -1.328,1.238 -2.183,2.972 -2.729,4.771 -0.55,1.815 -0.865,3.703 -1.251,5.62 -1.49,7.695 -2.499,14.721 -3.087,19.819 -0.295,2.55 -0.49,4.618 -0.597,6.05 -0.104,1.431 -0.125,2.227 -0.058,2.233 0.068,0.008 0.219,-0.772 0.441,-2.19 0.245,-1.622 0.549,-3.628 0.907,-6 0.765,-5.065 1.88,-12.052 3.365,-19.724 0.754,-3.792 1.268,-7.655 3.637,-9.918 2.367,-2.221 5.661,-2.453 8.066,-2.1 2.484,0.372 4.409,1.187 5.742,1.686 C -0.774,-0.22 -0.03,0.064 0,0"
             style="fill:#375a64;fill-opacity:1;fill-rule:nonzero;stroke:none"
             id="path768" />
        </g>
        <g
           id="g770"
           transform="translate(535.5999,137.7399)">
          <path
             d="M 0,0 C -0.015,0.043 0.303,0.244 0.96,0.285 1.61,0.333 2.599,0.136 3.574,-0.555 4.509,-1.242 5.502,-2.479 5.542,-4.164 5.619,-5.871 4.287,-7.55 2.55,-8.175 c -1.721,-0.672 -3.829,-0.284 -4.894,1.053 -1.078,1.296 -1.143,2.88 -0.89,4.013 0.28,1.162 0.895,1.961 1.416,2.352 0.523,0.401 0.894,0.459 0.911,0.417 0.128,-0.128 -1.315,-0.785 -1.64,-2.9 -0.143,-0.998 0.02,-2.323 0.887,-3.28 0.834,-0.98 2.436,-1.268 3.862,-0.729 1.429,0.533 2.445,1.802 2.429,3.09 0.023,1.29 -0.725,2.395 -1.488,3.053 C 1.506,0.274 -0.012,-0.18 0,0"
             style="fill:#375a64;fill-opacity:1;fill-rule:nonzero;stroke:none"
             id="path772" />
        </g>
        <g
           id="g774"
           transform="translate(535.3128,342.3229)">
          <path
             d="m 0,0 -13.528,79.551 c -2.721,19.898 -16.569,34.901 -36.385,31.63 l -1.814,-0.409 c -18.25,-4.118 -30.287,-21.556 -27.649,-40.079 2.454,-17.234 5.387,-36.244 7.548,-45.3 4.473,-18.745 23.935,-17.427 23.935,-17.427 0.043,0.008 2.222,-11.502 3.227,-17.068 l -2.075,-13.809 14.892,6.643 z"
             style="fill:#ffc19d;fill-opacity:1;fill-rule:nonzero;stroke:none"
             id="path776" />
        </g>
        <g
           id="g778"
           transform="translate(487.4199,350.2892)">
          <path
             d="m 0,0 c 0,0 12.005,1.978 22.843,12.759 0,0 -2.699,-15.462 -21.839,-18.002 z"
             style="fill:#ff9c6a;fill-opacity:1;fill-rule:nonzero;stroke:none"
             id="path780" />
        </g>
        <g
           id="g782"
           transform="translate(465.3524,397.1643)">
          <path
             d="M 0,0 C 0.269,-1.429 1.702,-2.379 3.199,-2.125 4.694,-1.87 5.69,-0.509 5.42,0.92 5.151,2.35 3.718,3.301 2.223,3.047 0.726,2.793 -0.27,1.429 0,0"
             style="fill:#1a2e35;fill-opacity:1;fill-rule:nonzero;stroke:none"
             id="path784" />
        </g>
        <g
           id="g786"
           transform="translate(461.8074,405.6154)">
          <path
             d="M 0,0 C 0.411,-0.274 2.105,1.69 4.997,2.334 7.874,3.019 10.33,2.011 10.563,2.435 10.682,2.626 10.2,3.182 9.125,3.646 8.066,4.11 6.369,4.412 4.571,3.997 2.774,3.581 1.41,2.578 0.693,1.703 -0.042,0.821 -0.2,0.12 0,0"
             style="fill:#1a2e35;fill-opacity:1;fill-rule:nonzero;stroke:none"
             id="path788" />
        </g>
        <g
           id="g790"
           transform="translate(490.2906,401.1512)">
          <path
             d="M 0,0 C 0.423,-0.259 2.043,1.769 4.904,2.523 7.754,3.318 10.246,2.406 10.464,2.84 10.574,3.035 10.075,3.572 8.98,3.993 7.903,4.417 6.196,4.652 4.415,4.17 2.636,3.685 1.311,2.629 0.627,1.729 -0.07,0.819 -0.202,0.112 0,0"
             style="fill:#1a2e35;fill-opacity:1;fill-rule:nonzero;stroke:none"
             id="path792" />
        </g>
        <g
           id="g794"
           transform="translate(484.9213,386.7995)">
          <path
             d="m 0,0 c -0.023,0.167 -1.889,0.073 -4.883,-0.212 -0.755,-0.09 -1.486,-0.102 -1.724,0.374 -0.294,0.494 -0.165,1.359 -10e-4,2.298 0.291,1.941 0.595,3.976 0.914,6.109 1.225,8.682 1.934,15.751 1.585,15.798 C -4.46,24.413 -5.737,17.415 -6.962,8.734 -7.246,6.597 -7.519,4.56 -7.776,2.612 -7.866,1.71 -8.131,0.651 -7.506,-0.37 c 0.323,-0.506 0.955,-0.784 1.457,-0.805 0.505,-0.037 0.922,0.048 1.292,0.109 C -1.794,-0.563 0.025,-0.167 0,0"
             style="fill:#1a2e35;fill-opacity:1;fill-rule:nonzero;stroke:none"
             id="path796" />
        </g>
        <g
           id="g798"
           transform="translate(487.5037,407.8517)">
          <path
             d="M 0,0 C 0.577,-0.633 3.165,0.847 6.536,1.784 9.89,2.789 12.868,2.916 13.019,3.759 13.077,4.157 12.337,4.671 10.992,4.96 9.658,5.252 7.719,5.253 5.702,4.673 3.688,4.088 2.048,3.055 1.074,2.096 0.09,1.135 -0.262,0.306 0,0"
             style="fill:#1a2e35;fill-opacity:1;fill-rule:nonzero;stroke:none"
             id="path800" />
        </g>
        <g
           id="g802"
           transform="translate(459.6051,414.2213)">
          <path
             d="m 0,0 c 0.74,-0.532 2.957,0.648 5.788,1.276 2.811,0.711 5.333,0.658 5.741,1.462 0.172,0.385 -0.344,0.965 -1.525,1.368 C 8.84,4.51 7.002,4.653 5.063,4.194 3.124,3.732 1.56,2.781 0.714,1.9 -0.146,1.013 -0.333,0.266 0,0"
             style="fill:#1a2e35;fill-opacity:1;fill-rule:nonzero;stroke:none"
             id="path804" />
        </g>
        <g
           id="g806"
           transform="translate(523.3903,407.6079)">
          <path
             d="M 0,0 C 0.289,0.211 12.055,6.734 14.544,-6.21 17.033,-19.154 3.524,-18.983 3.43,-18.616 3.336,-18.249 0,0 0,0"
             style="fill:#ffc19d;fill-opacity:1;fill-rule:nonzero;stroke:none"
             id="path808" />
        </g>
        <g
           id="g810"
           transform="translate(529.8313,394.6559)">
          <path
             d="M 0,0 C 0.048,0.052 0.256,-0.114 0.671,-0.215 1.075,-0.314 1.737,-0.309 2.363,0.074 3.633,0.838 4.368,3.231 3.982,5.577 3.788,6.761 3.325,7.835 2.73,8.683 2.152,9.554 1.413,10.098 0.701,10.088 -0.015,10.115 -0.423,9.609 -0.511,9.214 -0.615,8.819 -0.483,8.576 -0.548,8.541 c -0.03,-0.04 -0.319,0.164 -0.318,0.718 0.004,0.267 0.098,0.602 0.354,0.909 0.261,0.312 0.694,0.529 1.183,0.569 C 1.682,10.86 2.757,10.115 3.413,9.184 4.123,8.258 4.671,7.056 4.888,5.726 5.307,3.102 4.441,0.404 2.674,-0.497 1.809,-0.909 0.996,-0.781 0.546,-0.551 0.083,-0.308 -0.04,-0.032 0,0"
             style="fill:#ff9c6a;fill-opacity:1;fill-rule:nonzero;stroke:none"
             id="path812" />
        </g>
        <g
           id="g814"
           transform="translate(533.8454,438.2291)">
          <path
             d="M 0,0 C 1.404,0.542 2.693,1.379 3.727,2.473 4.116,2.884 4.494,3.433 4.328,3.974 4.16,4.52 3.538,4.757 2.999,4.945 -0.058,6.01 -2.808,7.864 -5.024,10.22 c -0.131,0.266 -0.256,0.536 -0.391,0.799 -2.472,4.822 -6.348,9.563 -11.705,10.375 l -0.103,-0.072 c -4.851,0.935 -10.402,-0.117 -13.489,-3.958 -2.227,6.57 -9.181,10.764 -16.105,11.212 -6.923,0.447 -17.287,-2.637 -23.11,-6.408 -3.973,-2.573 -7.509,-6.732 -11.438,-12.507 l 10e-4,0.004 c -10e-4,-0.002 -0.003,-0.004 -0.003,-0.007 -0.522,-0.767 -1.051,-1.558 -1.588,-2.383 -0.046,-0.069 -0.083,-0.143 -0.128,-0.212 -1.234,-1.148 -2.886,-1.884 -4.636,-2.411 -2.818,-0.85 -4.778,-0.271 -7.123,1.508 -0.714,0.541 -1.61,1.223 -2.4,0.802 -0.498,-0.267 -0.697,-0.876 -0.775,-1.435 -0.414,-2.981 1.409,-5.942 3.906,-7.621 1.209,-0.815 2.555,-1.368 3.957,-1.767 -3.3,-2.57 -7.169,-4.412 -11.262,-5.276 -1.645,-0.347 -3.375,-0.563 -4.687,-1.726 -0.602,-0.534 -1.034,-1.268 -1.092,-2.071 -0.127,-1.764 1.425,-2.762 2.906,-3.263 2.26,-0.765 4.744,-0.809 7.042,-0.176 -1.017,-0.703 -1.684,-1.975 -1.547,-3.227 0.2,-1.834 1.884,-3.324 3.718,-3.52 1.835,-0.195 3.687,0.782 4.766,2.277 -0.53,-0.573 -0.963,-1.227 -1.295,-1.931 -1.674,-3.549 3.339,-6.617 5.731,-3.508 0.015,0.019 0.029,0.037 0.043,0.056 0.784,-0.888 1.425,-1.818 2.089,-2.741 l 0.004,-0.024 0.138,-0.172 c 0.416,-0.575 0.843,-1.146 1.332,-1.699 l -0.005,0.043 6.625,-9.784 c -0.756,5.384 -2.353,14.769 -2.721,20.626 8.156,1.953 13.767,6.428 18.097,13.611 2.284,3.79 3.874,6.377 7.393,9.06 4.49,3.423 18.822,0.477 24.595,-0.369 0.914,-10.529 4.064,-20.86 9.218,-30.087 0.791,-1.415 4.164,-6.598 5.759,-6.883 3.135,-0.56 1.51,3.24 3.605,4.419 1.621,0.912 2.528,0.7 5.951,1.428 0.601,3.478 -0.319,12.482 -0.184,17.467 1.865,-0.191 3.77,0.028 5.521,0.697 -0.819,1.229 -1.637,2.459 -2.457,3.688 0.817,-0.319 1.663,-0.643 2.538,-0.602 0.875,0.041 1.792,0.548 2.025,1.393 0.3,1.092 -0.595,2.109 -1.347,2.957 C 1.461,-2.201 0.694,-1.126 0,0"
             style="fill:#1a2e35;fill-opacity:1;fill-rule:nonzero;stroke:none"
             id="path816" />
        </g>
        <g
           id="g818"
           transform="translate(497.5971,452.2604)">
          <path
             d="m 0,0 c -0.029,-0.057 0.89,-0.347 2.237,-1.368 1.335,-1.018 2.981,-2.921 4.129,-5.723 0.579,-1.39 1.081,-2.975 1.42,-4.719 0.346,-1.742 0.569,-3.636 0.818,-5.631 0.255,-1.992 0.519,-4.099 1.065,-6.238 0.274,-1.067 0.617,-2.14 1.064,-3.192 0.448,-1.033 0.959,-2.149 1.954,-2.918 0.796,-0.63 1.946,-0.755 2.847,-0.379 0.914,0.351 1.658,1.019 2.141,1.826 0.942,1.658 0.895,3.521 0.889,5.169 l -0.388,-0.125 c 0.927,-1.303 1.868,-2.584 3.075,-3.519 1.191,-0.945 2.683,-1.434 4.074,-1.29 0.693,0.071 1.358,0.313 1.886,0.721 0.54,0.407 0.877,0.986 1.073,1.565 0.18,0.587 0.214,1.199 0.075,1.757 -0.141,0.555 -0.464,1.046 -0.894,1.355 l -0.166,-0.219 c 1.783,-1.379 3.499,-1.974 4.661,-2.261 0.587,-0.144 1.046,-0.208 1.356,-0.245 0.311,-0.03 0.472,-0.037 0.473,-0.024 0.002,0.014 -0.157,0.045 -0.462,0.099 -0.305,0.061 -0.755,0.149 -1.329,0.313 -1.138,0.328 -2.808,0.955 -4.529,2.333 l -0.166,-0.218 c 0.769,-0.552 1.036,-1.73 0.673,-2.789 -0.185,-0.525 -0.497,-1.042 -0.975,-1.39 -0.472,-0.357 -1.079,-0.575 -1.713,-0.633 -1.28,-0.119 -2.671,0.341 -3.79,1.242 -1.141,0.896 -2.054,2.145 -2.973,3.451 l -0.391,0.554 0.002,-0.68 c 0.006,-1.646 0.019,-3.441 -0.843,-4.938 -0.432,-0.723 -1.115,-1.328 -1.916,-1.633 -0.799,-0.322 -1.727,-0.219 -2.42,0.319 -0.868,0.664 -1.374,1.716 -1.812,2.733 -0.437,1.027 -0.776,2.077 -1.048,3.126 -0.543,2.102 -0.815,4.193 -1.08,6.181 -0.261,1.991 -0.498,3.892 -0.865,5.654 C 7.793,-9.971 7.267,-8.37 6.659,-6.965 5.456,-4.135 3.734,-2.219 2.343,-1.228 0.939,-0.232 0,0 0,0"
             style="fill:#375a64;fill-opacity:1;fill-rule:nonzero;stroke:none"
             id="path820" />
        </g>
        <g
           id="g822"
           transform="translate(442.595,422.4457)">
          <path
             d="m 0,0 c -0.003,-0.007 0.057,-0.041 0.177,-0.1 0.146,-0.068 0.323,-0.151 0.54,-0.253 0.237,-0.115 0.535,-0.245 0.902,-0.359 0.364,-0.123 0.781,-0.279 1.27,-0.382 1.922,-0.494 4.904,-0.776 8.39,0.117 3.454,0.876 7.406,2.928 10.608,6.443 3.255,3.456 5.796,8.109 7.619,13.226 0.932,2.561 1.597,5.129 2.413,7.541 0.807,2.411 1.774,4.684 3.111,6.587 1.315,1.91 2.973,3.454 4.812,4.374 0.913,0.477 1.878,0.731 2.813,0.89 0.945,0.133 1.866,0.115 2.733,0.006 1.74,-0.23 3.231,-0.876 4.411,-1.609 1.185,-0.742 2.049,-1.599 2.677,-2.357 1.199,-1.573 1.464,-2.681 1.528,-2.649 0.008,0.003 -0.01,0.068 -0.053,0.195 -0.055,0.153 -0.122,0.337 -0.203,0.563 -0.191,0.489 -0.553,1.181 -1.134,1.999 -0.616,0.788 -1.48,1.683 -2.679,2.462 -1.193,0.77 -2.713,1.455 -4.502,1.713 -0.893,0.122 -1.845,0.15 -2.825,0.022 -0.971,-0.154 -1.985,-0.415 -2.932,-0.901 -1.914,-0.937 -3.632,-2.523 -4.987,-4.469 -1.378,-1.944 -2.37,-4.257 -3.188,-6.685 -0.828,-2.429 -1.495,-4.993 -2.42,-7.53 C 27.272,13.766 24.771,9.167 21.584,5.75 18.445,2.273 14.593,0.238 11.198,-0.668 7.778,-1.586 4.841,-1.359 2.93,-0.923 1.003,-0.477 0.024,0.061 0,0"
             style="fill:#375a64;fill-opacity:1;fill-rule:nonzero;stroke:none"
             id="path824" />
        </g>
        <g
           id="g826"
           transform="translate(439.2541,430.4325)">
          <path
             d="m 0,0 c -0.011,-0.03 0.264,-0.15 0.771,-0.341 0.504,-0.202 1.261,-0.423 2.21,-0.631 0.948,-0.215 2.101,-0.364 3.387,-0.426 1.286,-0.039 2.706,0.022 4.177,0.251 1.467,0.246 2.835,0.634 4.045,1.075 1.201,0.464 2.248,0.968 3.081,1.47 0.835,0.496 1.484,0.945 1.899,1.294 0.421,0.342 0.644,0.541 0.624,0.566 C 20.143,3.326 19.202,2.585 17.515,1.677 16.675,1.217 15.633,0.752 14.447,0.319 13.253,-0.093 11.911,-0.461 10.473,-0.702 9.032,-0.925 7.643,-0.998 6.38,-0.983 5.119,-0.944 3.982,-0.831 3.041,-0.659 1.154,-0.328 0.027,0.08 0,0"
             style="fill:#375a64;fill-opacity:1;fill-rule:nonzero;stroke:none"
             id="path828" />
        </g>
        <g
           id="g830"
           transform="translate(494.54,381.7718)">
          <path
             d="m 0,0 c 0.059,-0.258 -2.2,-1.191 -4.868,-2.684 -2.688,-1.448 -4.792,-2.753 -4.968,-2.531 -0.185,0.226 1.714,1.962 4.471,3.446 C -2.631,-0.237 -0.067,0.307 0,0"
             style="fill:#1a2e35;fill-opacity:1;fill-rule:nonzero;stroke:none"
             id="path832" />
        </g>
        <g
           id="g834"
           transform="translate(465.231,327.0998)">
          <path
             d="m 0,0 -14.175,-5.403 c 0,0 -2.616,-9.312 -2.616,-16.167 0,-4.238 -23.657,-71.796 -23.657,-71.796 l -48.222,12.489 -13.099,-34.41 c 2.686,-1.222 58.856,-24.287 77.036,-25.246 18.996,-1.001 32.378,55.026 32.378,55.026 z"
             style="fill:#1a2e35;fill-opacity:1;fill-rule:nonzero;stroke:none"
             id="path836" />
        </g>
        <g
           id="g838"
           transform="translate(432.8615,208.9005)">
          <path
             d="m 0,0 c -0.082,-0.009 -0.29,1.482 -0.741,3.868 -0.449,2.385 -1.183,5.66 -2.279,9.195 -1.103,3.534 -2.355,6.647 -3.339,8.867 -0.982,2.22 -1.655,3.567 -1.583,3.605 0.032,0.017 0.235,-0.301 0.576,-0.892 0.345,-0.589 0.805,-1.462 1.341,-2.558 1.074,-2.191 2.391,-5.307 3.502,-8.868 C -1.419,9.656 -0.736,6.343 -0.378,3.93 -0.198,2.723 -0.082,1.742 -0.032,1.062 0.023,0.382 0.036,0.004 0,0"
             style="fill:#375a64;fill-opacity:1;fill-rule:nonzero;stroke:none"
             id="path840" />
        </g>
        <g
           id="g842"
           transform="translate(550.7107,263.5433)">
          <path
             d="m 0,0 c -0.583,4.691 1.027,39.276 0.93,39.858 -0.097,0.583 -15.385,48.444 -15.385,48.444 l -4.14,15.097 -31.02,-26.417 c 0,0 -14.898,9.043 -14.65,9.685 l -1.433,-9.264 -2.571,-1.437 2.434,-39.727 5.452,-153.194 c 0,0 10.258,-7.412 32.284,-6.97 27.464,0.552 63.849,20.936 63.849,20.936 0,0 -35.167,98.298 -35.75,102.989"
             style="fill:#e1e1e1;fill-opacity:1;fill-rule:nonzero;stroke:none"
             id="path844" />
        </g>
        <g
           id="g846"
           transform="translate(494.6861,326.2285)">
          <path
             d="m 0,0 5.346,-5.605 6.43,1.073 2.383,6.895 L 9.036,9.729 3.985,8.605 Z"
             style="fill:#ff735d;fill-opacity:1;fill-rule:nonzero;stroke:none"
             id="path848" />
        </g>
        <g
           id="g850"
           transform="translate(534.5069,346.101)">
          <path
             d="m 0,0 c 0.042,-0.046 -0.432,-0.546 -1.324,-1.408 -1.047,-0.982 -2.326,-2.181 -3.832,-3.591 -3.262,-3.004 -7.81,-7.106 -12.869,-11.594 -1.654,-1.461 -3.255,-2.874 -4.756,-4.199 l -0.328,-0.29 -0.281,0.321 c -3.501,3.996 -5.803,7.943 -7.501,10.687 -0.833,1.385 -1.479,2.499 -1.913,3.269 -0.434,0.771 -0.651,1.201 -0.607,1.229 0.09,0.059 1.2,-1.514 2.986,-4.202 1.818,-2.655 4.224,-6.537 7.676,-10.397 l -0.608,0.032 c 1.495,1.333 3.088,2.754 4.735,4.222 5.06,4.489 9.674,8.516 13.044,11.397 1.58,1.327 2.923,2.455 4.022,3.377 C -0.593,-0.364 -0.041,0.046 0,0"
             style="fill:#1a2e35;fill-opacity:1;fill-rule:nonzero;stroke:none"
             id="path852" />
        </g>
        <g
           id="g854"
           transform="translate(486.2414,331.4349)">
          <path
             d="M 0,0 C 0.074,0.072 0.908,-0.656 2.254,-1.942 3.599,-3.228 5.456,-5.071 7.575,-7.229 L 6.878,-7.333 c 0.539,1.087 1.091,2.279 1.653,3.517 1.629,3.606 3.079,6.899 4.232,9.235 1.143,2.343 1.984,3.728 2.092,3.672 C 14.967,9.033 14.333,7.557 13.342,5.157 12.341,2.761 10.987,-0.563 9.35,-4.189 8.784,-5.433 8.217,-6.63 7.649,-7.726 L 7.368,-8.268 6.952,-7.83 C 4.871,-5.634 3.096,-3.712 1.86,-2.322 0.624,-0.931 -0.074,-0.072 0,0"
             style="fill:#1a2e35;fill-opacity:1;fill-rule:nonzero;stroke:none"
             id="path856" />
        </g>
        <g
           id="g858"
           transform="translate(500.0322,320.6239)">
          <path
             d="m 0,0 v -150.202 l 18.194,-18.321 13.383,19.99 L 6.43,1.073 Z"
             style="fill:#ff735d;fill-opacity:1;fill-rule:nonzero;stroke:none"
             id="path860" />
        </g>
        <g
           id="g862">
          <g
             id="g864" />
          <g
             id="g876">
            <g
               clip-path="url(#clipPath868)"
               opacity="0.300003"
               id="g874">
              <g
                 transform="translate(559.5137,183.908)"
                 id="g872">
                <path
                   d="m 0,0 22.308,-81.342 c 1.114,-4.064 5.734,-6.019 9.427,-3.989 l 19.692,10.823"
                   style="fill:#000000;fill-opacity:1;fill-rule:nonzero;stroke:none"
                   id="path870" />
              </g>
            </g>
          </g>
        </g>
        <g
           id="g878"
           transform="translate(592.6281,217.3429)">
          <path
             d="m 0,0 7.865,132.021 -49.398,7.379 c 0,0 -16.404,8.224 -17.758,8.954 l 2.212,-14.158 c 0,0 5.572,-72.175 9.783,-101.107 4.212,-28.933 4.117,-37.612 14.182,-66.524 8.164,-23.453 22.924,-62.905 28.207,-76.967 1.035,-2.756 4.24,-3.992 6.859,-2.646 l 40.096,20.601 z"
             style="fill:#1a2e35;fill-opacity:1;fill-rule:nonzero;stroke:none"
             id="path880" />
        </g>
        <g
           id="g882"
           transform="translate(553.2124,221.6681)">
          <path
             d="m 0,0 c -0.031,-0.001 -0.071,0.488 -0.119,1.421 -0.035,0.932 -0.131,2.311 -0.136,4.085 -0.039,3.549 0,8.684 0.186,15.023 0.35,12.68 1.169,30.182 2.284,49.498 0.89,15.487 1.826,29.789 2.637,41.256 l 0.177,-0.336 c -2.608,1.564 -5.017,3.009 -7.247,4.346 l -0.303,0.182 0.211,0.279 c 2.049,2.696 3.846,5.061 5.413,7.123 l -0.012,-0.275 c -1.82,3.033 -3.269,5.446 -4.31,7.18 -0.456,0.786 -0.822,1.417 -1.109,1.911 -0.245,0.437 -0.362,0.667 -0.343,0.68 0.019,0.011 0.174,-0.197 0.456,-0.61 0.315,-0.477 0.716,-1.086 1.216,-1.844 1.089,-1.706 2.603,-4.078 4.506,-7.059 l 0.088,-0.139 -0.1,-0.137 c -1.535,-2.087 -3.293,-4.479 -5.299,-7.208 l -0.092,0.461 c 2.244,-1.313 4.669,-2.731 7.294,-4.266 l 0.191,-0.112 -0.013,-0.224 C 4.888,99.725 4.036,85.438 3.113,69.975 1.997,50.663 1.079,33.173 0.567,20.507 0.3,14.175 0.164,9.049 0.095,5.506 0.046,3.734 0.086,2.36 0.062,1.426 0.052,0.493 0.031,0.002 0,0"
             style="fill:#375a64;fill-opacity:1;fill-rule:nonzero;stroke:none"
             id="path884" />
        </g>
        <g
           id="g886"
           transform="translate(484.8497,102.1128)">
          <path
             d="M 0,0 C 3.8,-1.387 7.76,1.623 7.442,5.654 L 6.308,107.569 0.955,243.953 -3.832,235.636 -33.794,219.584 c 0,0 2.11,-14.582 6.212,-38.643 3.935,-23.079 11.762,-79.639 11.762,-79.639 L -21.891,8.101 Z"
             style="fill:#1a2e35;fill-opacity:1;fill-rule:nonzero;stroke:none"
             id="path888" />
        </g>
        <g
           id="g890"
           transform="translate(454.4406,300.1525)">
          <path
             d="m 0,0 c 0.009,0.001 0.031,-0.08 0.067,-0.239 0.038,-0.191 0.086,-0.424 0.144,-0.711 0.124,-0.669 0.293,-1.584 0.506,-2.742 0.422,-2.43 1.019,-5.87 1.754,-10.102 1.452,-8.535 3.398,-20.336 5.431,-33.389 2.027,-13.058 3.74,-24.897 4.844,-33.486 0.559,-4.293 0.967,-7.773 1.227,-10.18 0.118,-1.172 0.211,-2.098 0.279,-2.774 0.024,-0.292 0.044,-0.53 0.06,-0.723 0.01,-0.163 0.011,-0.248 0.002,-0.249 -0.009,-0.001 -0.027,0.082 -0.055,0.243 -0.03,0.192 -0.066,0.427 -0.111,0.717 -0.092,0.673 -0.217,1.595 -0.376,2.761 -0.335,2.443 -0.808,5.901 -1.391,10.156 -1.197,8.572 -2.967,20.4 -4.993,33.456 -2.059,13.026 -3.923,24.819 -5.28,33.408 C 1.441,-9.611 0.9,-6.161 0.517,-3.725 0.344,-2.561 0.208,-1.64 0.108,-0.967 0.07,-0.677 0.039,-0.441 0.014,-0.248 -0.004,-0.086 -0.009,-0.001 0,0"
             style="fill:#375a64;fill-opacity:1;fill-rule:nonzero;stroke:none"
             id="path892" />
        </g>
        <g
           id="g894">
          <g
             id="g896" />
          <g
             id="g908">
            <g
               clip-path="url(#clipPath900)"
               opacity="0.300003"
               id="g906">
              <g
                 transform="translate(456.2936,288.9834)"
                 id="g904">
                <path
                   d="M 0,0 C -4.087,-19.159 -0.2,-41.862 8.294,-57.379 5.533,-40.116 2.761,-17.263 0,0"
                   style="fill:#000000;fill-opacity:1;fill-rule:nonzero;stroke:none"
                   id="path902" />
              </g>
            </g>
          </g>
        </g>
        <g
           id="g910"
           transform="translate(491.8703,145.6553)">
          <path
             d="m 0,0 c 0.018,0.001 0.044,-0.259 0.076,-0.753 0.03,-0.545 0.069,-1.265 0.118,-2.164 0.081,-1.936 0.194,-4.642 0.334,-7.961 0.233,-6.772 0.553,-16.036 0.906,-26.269 0.02,-0.642 0.04,-1.279 0.059,-1.913 0.004,-0.651 -0.037,-1.325 -0.249,-1.947 -0.364,-1.263 -1.219,-2.333 -2.261,-3.041 -1.052,-0.705 -2.316,-1.047 -3.534,-0.949 -0.609,0.028 -1.196,0.197 -1.751,0.397 -0.529,0.21 -1.052,0.418 -1.569,0.623 -4.12,1.644 -7.835,3.125 -10.976,4.378 -3.079,1.249 -5.588,2.266 -7.383,2.994 -0.831,0.349 -1.495,0.627 -1.998,0.839 -0.455,0.197 -0.69,0.308 -0.684,0.325 0.007,0.017 0.255,-0.062 0.722,-0.228 0.512,-0.188 1.188,-0.437 2.034,-0.747 1.81,-0.691 4.34,-1.656 7.444,-2.84 3.152,-1.223 6.881,-2.67 11.017,-4.275 1.053,-0.378 2.07,-0.931 3.178,-0.97 1.109,-0.085 2.257,0.231 3.215,0.876 0.947,0.649 1.723,1.623 2.05,2.769 0.38,1.125 0.17,2.402 0.165,3.692 -0.294,10.236 -0.559,19.501 -0.753,26.275 -0.071,3.321 -0.128,6.028 -0.169,7.966 -0.008,0.9 -0.015,1.621 -0.02,2.166 C -0.027,-0.261 -0.018,-0.001 0,0"
             style="fill:#375a64;fill-opacity:1;fill-rule:nonzero;stroke:none"
             id="path912" />
        </g>
        <g
           id="g914"
           transform="translate(592.7206,292.7188)">
          <path
             d="M 0,0 51.581,-23.933 14.573,-77.765 43.925,-98.927 c 0,0 36.279,45.494 48.495,70.605 2.714,5.578 4.627,23.654 -6.939,32.716 C 79.257,9.271 68.13,15.901 47.866,29.95 35.651,38.419 10.585,52.102 10.585,52.102 l -2.812,4.543 z"
             style="fill:#1a2e35;fill-opacity:1;fill-rule:nonzero;stroke:none"
             id="path916" />
        </g>
        <g
           id="g918"
           transform="translate(592.2105,294.4484)">
          <path
             d="m 0,0 c -0.016,-0.008 -0.113,0.169 -0.284,0.513 -0.19,0.399 -0.43,0.901 -0.724,1.518 -0.156,0.338 -0.327,0.706 -0.512,1.104 -0.173,0.409 -0.328,0.867 -0.511,1.353 -0.347,0.978 -0.809,2.073 -1.125,3.344 -0.177,0.631 -0.362,1.291 -0.555,1.977 -0.187,0.69 -0.302,1.425 -0.464,2.178 -0.353,1.501 -0.521,3.138 -0.742,4.855 -0.309,3.447 -0.346,7.27 0.098,11.245 0.494,3.971 1.42,7.681 2.524,10.961 0.615,1.619 1.16,3.172 1.853,4.55 0.333,0.694 0.616,1.382 0.959,2.009 0.347,0.623 0.681,1.221 1,1.794 0.604,1.163 1.308,2.12 1.873,2.99 0.291,0.43 0.548,0.839 0.812,1.197 0.272,0.344 0.524,0.662 0.755,0.954 0.43,0.531 0.78,0.964 1.057,1.307 0.246,0.295 0.382,0.444 0.396,0.433 C 6.424,54.271 6.315,54.099 6.096,53.784 5.84,53.426 5.517,52.975 5.12,52.421 4.901,52.122 4.663,51.797 4.405,51.445 4.154,51.08 3.911,50.665 3.632,50.23 3.094,49.35 2.416,48.387 1.838,47.221 1.53,46.647 1.209,46.048 0.875,45.425 0.545,44.799 0.273,44.111 -0.049,43.42 -0.719,42.046 -1.244,40.5 -1.841,38.893 -2.91,35.634 -3.812,31.958 -4.302,28.026 -4.741,24.089 -4.719,20.306 -4.44,16.888 -4.233,15.186 -4.083,13.56 -3.751,12.069 -3.599,11.321 -3.495,10.589 -3.32,9.903 -3.14,9.219 -2.967,8.562 -2.802,7.932 -2.511,6.664 -2.076,5.57 -1.758,4.588 -1.588,4.1 -1.448,3.64 -1.289,3.227 -1.121,2.824 -0.965,2.452 -0.821,2.111 -0.564,1.48 -0.355,0.966 -0.189,0.558 -0.049,0.2 0.016,0.008 0,0"
             style="fill:#375a64;fill-opacity:1;fill-rule:nonzero;stroke:none"
             id="path920" />
        </g>
        <g
           id="g922"
           transform="translate(666.1723,276.2945)">
          <path
             d="m 0,0 c -0.019,-0.098 -1.355,0.195 -3.537,0.247 -1.09,0.035 -2.389,-0.042 -3.814,-0.234 -1.422,-0.22 -2.967,-0.573 -4.536,-1.119 -1.562,-0.566 -2.984,-1.267 -4.226,-1.992 -1.228,-0.751 -2.284,-1.511 -3.107,-2.225 -1.661,-1.417 -2.513,-2.487 -2.589,-2.423 -0.028,0.023 0.168,0.301 0.55,0.789 0.187,0.247 0.426,0.541 0.736,0.854 0.305,0.316 0.636,0.697 1.059,1.056 0.807,0.762 1.861,1.569 3.101,2.358 1.255,0.765 2.704,1.496 4.302,2.074 1.604,0.559 3.19,0.905 4.645,1.104 1.46,0.17 2.787,0.208 3.894,0.126 0.555,-0.012 1.051,-0.099 1.488,-0.151 0.437,-0.048 0.808,-0.125 1.11,-0.199 C -0.32,0.128 0.008,0.035 0,0"
             style="fill:#375a64;fill-opacity:1;fill-rule:nonzero;stroke:none"
             id="path924" />
        </g>
        <g
           id="g926"
           transform="translate(605.0471,208.7123)">
          <path
             d="m 0,0 21.942,-21.004 6.516,8.347 L 3.895,5.194 Z"
             style="fill:#e1e1e1;fill-opacity:1;fill-rule:nonzero;stroke:none"
             id="path928" />
        </g>
        <g
           id="g930"
           transform="translate(556.5626,208.2789)">
          <path
             d="m 0,0 c 0,0 15.207,5.699 17.587,5.143 2.38,-0.556 15.339,-6.533 17.984,-6.394 2.644,0.139 5.95,-0.002 5.95,-0.002 0,0 -2.909,3.894 -2.645,5.562 0.059,0.371 0.255,0.7 0.524,0.989 1.158,1.239 3.123,1.015 4.143,-0.351 2.07,-2.771 6.327,-7.328 7.465,-6.929 l 15.241,-14.589 c 0,0 -4.1,-8.449 -11.769,-8.588 -7.67,-0.139 -27.769,1.39 -29.356,0.834 -1.587,-0.556 -4.628,-1.807 -4.628,-1.807 0,0 -7.934,-6.395 -9.388,-6.255 -1.455,0.138 -3.042,0.416 -2.91,2.224 0.133,1.807 8.199,9.035 9.653,10.286 1.455,1.251 6.348,3.197 6.348,3.197 l -9.786,-1.807 c 0,0 -10.314,-5.699 -13.091,-5.004 -2.777,0.695 -3.305,1.668 -2.512,2.919 0.793,1.251 13.091,8.479 13.091,8.479 l 2.208,1.372 c 0,0 -12.928,-6.515 -15.634,-6.376 -2.706,0.139 -3.896,1.529 -2.971,3.058 0.926,1.529 12.827,8.479 13.885,9.452 1.057,0.973 3.975,1.529 3.975,1.529 0,0 -3.711,-1.529 -9.265,-1.251 C -1.455,-4.031 -0.661,-1.946 0,0"
             style="fill:#ffc19d;fill-opacity:1;fill-rule:nonzero;stroke:none"
             id="path932" />
        </g>
        <g
           id="g934"
           transform="translate(582.8399,198.8982)">
          <path
             d="m 0,0 c -0.018,-0.176 -3.634,0.758 -8.041,-0.066 -4.419,-0.766 -7.481,-2.903 -7.559,-2.744 -0.033,0.047 0.675,0.641 1.983,1.354 1.304,0.715 3.238,1.494 5.484,1.903 2.246,0.401 4.331,0.345 5.801,0.13 C -0.856,0.365 0.015,0.056 0,0"
             style="fill:#ff9c6a;fill-opacity:1;fill-rule:nonzero;stroke:none"
             id="path936" />
        </g>
        <g
           id="g938"
           transform="translate(580.8172,206.5048)">
          <path
             d="m 0,0 c -0.022,-0.176 -3.541,0.933 -7.878,0.152 -4.349,-0.718 -7.293,-2.942 -7.372,-2.784 -0.035,0.045 0.638,0.658 1.908,1.389 1.265,0.732 3.163,1.523 5.376,1.908 2.213,0.378 4.265,0.27 5.702,0.004 C -0.822,0.406 0.018,0.054 0,0"
             style="fill:#ff9c6a;fill-opacity:1;fill-rule:nonzero;stroke:none"
             id="path940" />
        </g>
        <g
           id="g942"
           transform="translate(376.5369,209.8355)">
          <path
             d="m 0,0 v 0 c -2.739,-1.758 -6.384,-0.964 -8.143,1.775 l -51.131,79.633 c -1.759,2.738 -0.964,6.384 1.775,8.142 2.738,1.759 6.384,0.964 8.142,-1.774 L 1.775,8.143 C 3.533,5.404 2.739,1.758 0,0"
             style="fill:#375a64;fill-opacity:1;fill-rule:nonzero;stroke:none"
             id="path944" />
        </g>
        <g
           id="g946">
          <g
             id="g948" />
          <g
             id="g960">
            <g
               clip-path="url(#clipPath952)"
               opacity="0.300003"
               id="g958">
              <g
                 transform="translate(334.8833,285.6144)"
                 id="g956">
                <path
                   d="m 0,0 -10.241,-5.864 2.274,-3.542 10.154,6 z"
                   style="fill:#000000;fill-opacity:1;fill-rule:nonzero;stroke:none"
                   id="path954" />
              </g>
            </g>
          </g>
        </g>
        <g
           id="g962"
           transform="translate(306.8467,342.1618)">
          <path
             d="m 0,0 c 16.84,-30.666 24.692,-58.551 17.582,-62.455 -7.11,-3.904 -26.489,17.65 -43.329,48.316 -16.84,30.666 -24.728,58.691 -17.618,62.595 C -36.255,52.361 -16.84,30.666 0,0"
             style="fill:#e1e1e1;fill-opacity:1;fill-rule:nonzero;stroke:none"
             id="path964" />
        </g>
        <g
           id="g966"
           transform="translate(317.5409,347.8008)">
          <path
             d="m 0,0 c -16.84,30.666 -36.255,52.361 -43.365,48.456 l -14.192,-7.56 c 7.109,3.905 26.524,-17.79 43.365,-48.456 16.84,-30.666 24.728,-58.691 17.618,-62.595 l 12.475,7.143 3.044,1.743 0.053,0.031 -0.019,0.034 C 23.413,-54.257 15.527,-28.276 0,0"
             style="fill:#375a64;fill-opacity:1;fill-rule:nonzero;stroke:none"
             id="path968" />
        </g>
        <g
           id="g970"
           transform="translate(285.5049,331.4888)">
          <path
             d="m 0,0 c -13.15,23.946 -20.801,46.224 -20.155,56.722 -2.171,1.023 -4,1.237 -5.366,0.486 -7.11,-3.904 0.778,-31.929 17.618,-62.595 16.84,-30.666 36.255,-52.36 43.365,-48.456 1.558,0.856 2.423,2.854 2.604,5.8 C 28.946,-43.743 13.603,-24.771 0,0"
             style="fill:#1a2e35;fill-opacity:1;fill-rule:nonzero;stroke:none"
             id="path972" />
        </g>
        <g
           id="g974"
           transform="translate(298.9962,313.3671)">
          <path
             d="M 0,0 C -0.144,0.005 -0.036,6.315 0.24,14.093 0.516,21.873 0.857,28.173 1,28.168 1.144,28.163 1.037,21.854 0.76,14.074 0.484,6.297 0.144,-0.005 0,0"
             style="fill:#375a64;fill-opacity:1;fill-rule:nonzero;stroke:none"
             id="path976" />
        </g>
        <g
           id="g978"
           transform="translate(290.9476,328.238)">
          <path
             d="m 0,0 c -0.072,0.003 -0.1,1.041 -0.088,2.717 0.013,1.676 0.066,3.991 0.156,6.546 0.091,2.556 0.202,4.869 0.309,6.542 0.106,1.673 0.208,2.706 0.28,2.704 0.072,-0.003 0.1,-1.041 0.088,-2.717 C 0.733,14.115 0.68,11.801 0.589,9.245 0.498,6.689 0.387,4.377 0.28,2.704 0.174,1.031 0.072,-0.003 0,0"
             style="fill:#375a64;fill-opacity:1;fill-rule:nonzero;stroke:none"
             id="path980" />
        </g>
        <g
           id="g982"
           transform="translate(295.4529,325.8362)">
          <path
             d="m 0,0 c -0.143,0.01 -0.047,3.028 0.215,6.739 0.263,3.712 0.592,6.713 0.736,6.703 C 1.094,13.431 0.997,10.415 0.735,6.702 0.473,2.991 0.143,-0.01 0,0"
             style="fill:#375a64;fill-opacity:1;fill-rule:nonzero;stroke:none"
             id="path984" />
        </g>
        <g
           id="g986"
           transform="translate(329.7924,271.7289)">
          <path
             d="m 0,0 c 0.073,-0.253 14.601,-3.488 16.162,-6.086 1.609,-2.679 -0.54,-3.7 -2.401,-4.185 -1.884,-0.491 -2.413,-0.387 -2.413,-0.387 0,0 9.175,-1.453 9.409,-4.796 0.234,-3.343 -3.606,-3.611 -3.606,-3.611 0,0 3.294,-1.393 3.369,-4.337 0.075,-2.945 -2.751,-3.243 -2.751,-3.243 0,0 3.448,-1.163 0.579,-3.856 -2.869,-2.693 -9.941,-1.191 -9.941,-1.191"
             style="fill:#ffc19d;fill-opacity:1;fill-rule:nonzero;stroke:none"
             id="path988" />
        </g>
        <g
           id="g990"
           transform="translate(338.1993,240.0367)">
          <path
             d="m 0,0 c 0.005,0.023 0.381,-0.037 1.091,-0.117 0.71,-0.078 1.756,-0.186 3.089,-0.171 1.315,0.031 2.999,0.104 4.636,0.925 0.788,0.41 1.557,1.114 1.958,2.001 0.184,0.449 0.113,0.943 -0.191,1.334 C 10.277,4.358 9.789,4.656 9.293,4.842 9.18,4.884 9.122,5.01 9.165,5.123 9.193,5.199 9.259,5.25 9.334,5.262 l 0.005,0.001 c 0.707,0.115 1.469,0.46 1.943,1.059 0.491,0.592 0.661,1.426 0.566,2.247 -0.148,1.67 -1.585,3.069 -3.202,3.825 -0.128,0.06 -0.183,0.212 -0.123,0.339 0.039,0.084 0.118,0.136 0.203,0.146 1.219,0.135 2.604,0.702 3.141,1.887 0.24,0.563 0.32,1.322 0.126,1.891 -0.21,0.597 -0.733,1.087 -1.303,1.485 -1.166,0.789 -2.518,1.289 -3.838,1.702 -1.326,0.407 -2.661,0.716 -3.95,0.941 l 0.088,0.497 c 0.78,-0.012 1.75,0.234 2.577,0.453 0.83,0.243 1.661,0.578 2.156,1.176 0.515,0.594 0.408,1.439 0.072,2.136 -0.184,0.368 -0.353,0.666 -0.65,0.904 -0.291,0.242 -0.614,0.453 -0.946,0.642 -1.339,0.748 -2.724,1.265 -4.003,1.732 -1.285,0.463 -2.491,0.846 -3.588,1.188 -4.397,1.341 -7.069,2.024 -7.015,2.179 0,0 0.658,-0.177 1.884,-0.479 C -5.299,30.906 -3.516,30.46 -1.3,29.822 -0.193,29.5 1.024,29.136 2.324,28.688 3.621,28.233 5.016,27.734 6.414,26.972 6.762,26.779 7.107,26.56 7.435,26.291 7.779,26.026 8.029,25.612 8.209,25.243 8.377,24.845 8.549,24.425 8.55,23.948 8.563,23.479 8.4,22.985 8.095,22.613 7.473,21.866 6.571,21.528 5.703,21.262 5.261,21.135 4.82,21.028 4.362,20.935 3.889,20.852 3.477,20.748 2.893,20.786 c -0.139,0.01 -0.245,0.13 -0.236,0.269 0.01,0.14 0.13,0.245 0.269,0.236 l 0.026,-0.003 0.029,-0.005 c 1.325,-0.225 2.666,-0.533 4.023,-0.945 1.349,-0.422 2.729,-0.922 3.984,-1.768 0.611,-0.431 1.216,-0.969 1.496,-1.74 0.156,-0.39 0.128,-0.794 0.123,-1.162 -0.017,-0.19 -0.057,-0.379 -0.086,-0.567 -0.049,-0.185 -0.12,-0.365 -0.182,-0.546 -0.319,-0.707 -0.911,-1.239 -1.546,-1.58 -0.648,-0.336 -1.323,-0.525 -2.031,-0.6 l 0.08,0.484 c 0.905,-0.424 1.682,-0.994 2.324,-1.705 0.626,-0.714 1.08,-1.603 1.155,-2.536 C 12.422,7.707 12.227,6.737 11.635,6.032 11.049,5.325 10.222,4.96 9.385,4.831 L 9.432,5.253 C 10.012,5.027 10.529,4.71 10.913,4.225 11.3,3.74 11.382,3.025 11.144,2.496 10.66,1.464 9.84,0.768 8.979,0.325 7.222,-0.516 5.515,-0.54 4.18,-0.538 2.829,-0.516 1.78,-0.367 1.073,-0.247 0.364,-0.125 -0.005,-0.022 0,0"
             style="fill:#ff9c6a;fill-opacity:1;fill-rule:nonzero;stroke:none"
             id="path992" />
        </g>
        <g
           id="g994"
           transform="translate(347.1998,252.6958)">
          <path
             d="m 0,0 c -0.019,-0.072 -0.886,0.088 -2.283,0.359 -1.593,0.307 -3.429,0.66 -5.457,1.05 -2.133,0.403 -4.066,0.769 -5.461,1.06 -1.395,0.29 -2.252,0.505 -2.24,0.576 0.013,0.071 0.892,-0.016 2.303,-0.213 1.412,-0.198 3.356,-0.508 5.495,-0.911 C -5.505,1.517 -3.581,1.084 -2.201,0.718 -0.82,0.354 0.017,0.067 0,0"
             style="fill:#ff9c6a;fill-opacity:1;fill-rule:nonzero;stroke:none"
             id="path996" />
        </g>
        <g
           id="g998"
           transform="translate(332.4329,263.2004)">
          <path
             d="M 0,0 C 0.019,0.138 2.042,-0.039 4.476,-0.602 6.912,-1.159 8.809,-1.883 8.766,-2.016 8.722,-2.157 6.773,-1.661 4.359,-1.109 1.949,-0.552 -0.022,-0.146 0,0"
             style="fill:#ff9c6a;fill-opacity:1;fill-rule:nonzero;stroke:none"
             id="path1000" />
        </g>
        <g
           id="g1002"
           transform="translate(335.2016,246.4075)">
          <path
             d="m 0,0 c 0.001,0.071 0.693,0.125 1.813,0.14 1.12,0.014 2.669,-0.015 4.376,-0.17 3.429,-0.282 6.101,-1.173 6.052,-1.308 -0.04,-0.139 -2.716,0.511 -6.1,0.789 C 2.763,-0.256 -0.004,-0.163 0,0"
             style="fill:#ff9c6a;fill-opacity:1;fill-rule:nonzero;stroke:none"
             id="path1004" />
        </g>
      </g>
    </g>
  </g>
</svg>
