<svg id="visual" viewBox="0 0 960 540" width="960" height="540" xmlns="http://www.w3.org/2000/svg" xmlns:xlink="http://www.w3.org/1999/xlink" version="1.1"><rect width="960" height="540" fill="#f4f4f5"></rect><g><g transform="translate(68 88)"><path d="M67.4 -46.9C89.1 -26.5 109.7 1.6 107.9 30.6C106 59.5 81.6 89.2 49.9 105.1C18.1 121 -21.1 123 -54 108.6C-87 94.1 -113.7 63.1 -122.9 26.9C-132.1 -9.3 -123.8 -50.7 -100.4 -71.4C-76.9 -92.2 -38.5 -92.3 -7.8 -86.1C22.8 -79.8 45.7 -67.2 67.4 -46.9Z" fill="#be123c"></path></g><g transform="translate(534 366)"><path d="M47.8 -39.4C55.6 -28.4 51.1 -8.9 47.3 12C43.5 32.9 40.4 55.1 26.3 66.5C12.2 77.9 -12.9 78.4 -27.6 67.4C-42.2 56.5 -46.4 34 -48.9 13.8C-51.5 -6.5 -52.4 -24.5 -44 -35.7C-35.5 -46.8 -17.8 -51.2 1.1 -52.1C20 -53 40 -50.4 47.8 -39.4Z" fill="#be123c"></path></g><g transform="translate(943 469)"><path d="M70.4 -58.7C84.5 -38.3 84.8 -9.5 78.1 17.2C71.5 43.8 58.1 68.2 35.6 82.2C13.2 96.2 -18.3 99.7 -43.1 88.2C-67.9 76.7 -86.2 50.3 -89.8 23.6C-93.4 -3.1 -82.3 -30 -64.9 -51.1C-47.5 -72.2 -23.8 -87.6 2.2 -89.3C28.1 -91 56.2 -79.1 70.4 -58.7Z" fill="#be123c"></path></g><g transform="translate(66 404)"><path d="M29.2 -26.2C34.5 -16.6 33.2 -4.6 29.8 5.4C26.3 15.3 20.7 23.4 13 27.2C5.3 30.9 -4.6 30.4 -13.4 26.6C-22.3 22.8 -30.1 15.8 -33.9 5.9C-37.6 -4 -37.2 -16.7 -30.9 -26.5C-24.5 -36.4 -12.3 -43.5 -0.2 -43.3C11.9 -43.2 23.8 -35.8 29.2 -26.2Z" fill="#be123c"></path></g><g transform="translate(922 140)"><path d="M16 -10.7C20.3 -7.3 23.3 -0.6 21.6 4.2C19.9 9.1 13.7 12.2 8.2 13.6C2.7 15 -2.1 14.6 -7 12.9C-11.8 11.1 -16.8 8 -19 3C-21.3 -2.1 -20.7 -9.1 -17.1 -12.3C-13.5 -15.6 -6.7 -15.1 -0.5 -14.7C5.8 -14.3 11.6 -14.1 16 -10.7Z" fill="#be123c"></path></g></g></svg>