<svg id="visual" viewBox="0 0 960 540" width="960" height="540" xmlns="http://www.w3.org/2000/svg" xmlns:xlink="http://www.w3.org/1999/xlink" version="1.1"><g><g transform="translate(771 357)"><path d="M95 -32.9C108.3 10.1 94.1 60 58.6 87.2C23.2 114.5 -33.3 119.1 -70.9 92.9C-108.5 66.7 -127.1 9.7 -112.1 -35.6C-97.1 -80.8 -48.5 -114.4 -3.9 -113.1C40.8 -111.9 81.7 -75.8 95 -32.9Z" fill="#ffe4e6"></path></g><g transform="translate(281 226)"><path d="M77.7 -25.9C90.2 13.2 82.6 58.1 56 77.6C29.3 97.1 -16.2 91.1 -45.5 68.4C-74.8 45.8 -87.7 6.5 -77.4 -29.5C-67.2 -65.6 -33.6 -98.5 -0.5 -98.3C32.6 -98.2 65.3 -65 77.7 -25.9Z" fill="#ffe4e6"></path></g></g></svg>