<svg id="visual" viewBox="0 0 960 540" width="960" height="540" xmlns="http://www.w3.org/2000/svg" xmlns:xlink="http://www.w3.org/1999/xlink" version="1.1"><path d="M0 39L20 44.5C40 50 80 61 120 64.2C160 67.3 200 62.7 240 57.3C280 52 320 46 360 49.7C400 53.3 440 66.7 480 66.8C520 67 560 54 600 53.8C640 53.7 680 66.3 720 65.3C760 64.3 800 49.7 840 51.3C880 53 920 71 940 80L960 89L960 0L940 0C920 0 880 0 840 0C800 0 760 0 720 0C680 0 640 0 600 0C560 0 520 0 480 0C440 0 400 0 360 0C320 0 280 0 240 0C200 0 160 0 120 0C80 0 40 0 20 0L0 0Z" fill="#f4f4f5"></path><path d="M0 45L20 40.7C40 36.3 80 27.7 120 29C160 30.3 200 41.7 240 48.8C280 56 320 59 360 57.8C400 56.7 440 51.3 480 47.2C520 43 560 40 600 44.5C640 49 680 61 720 60.5C760 60 800 47 840 45.5C880 44 920 54 940 59L960 64L960 0L940 0C920 0 880 0 840 0C800 0 760 0 720 0C680 0 640 0 600 0C560 0 520 0 480 0C440 0 400 0 360 0C320 0 280 0 240 0C200 0 160 0 120 0C80 0 40 0 20 0L0 0Z" fill="#f6dbef"></path><path d="M0 31L20 34.2C40 37.3 80 43.7 120 46.5C160 49.3 200 48.7 240 44C280 39.3 320 30.7 360 30.5C400 30.3 440 38.7 480 42.3C520 46 560 45 600 43.3C640 41.7 680 39.3 720 35.2C760 31 800 25 840 21.3C880 17.7 920 16.3 940 15.7L960 15L960 0L940 0C920 0 880 0 840 0C800 0 760 0 720 0C680 0 640 0 600 0C560 0 520 0 480 0C440 0 400 0 360 0C320 0 280 0 240 0C200 0 160 0 120 0C80 0 40 0 20 0L0 0Z" fill="#ffc0c2"></path><path d="M0 18L20 20.8C40 23.7 80 29.3 120 27.8C160 26.3 200 17.7 240 16.3C280 15 320 21 360 24.5C400 28 440 29 480 26C520 23 560 16 600 12.7C640 9.3 680 9.7 720 14C760 18.3 800 26.7 840 26C880 25.3 920 15.7 940 10.8L960 6L960 0L940 0C920 0 880 0 840 0C800 0 760 0 720 0C680 0 640 0 600 0C560 0 520 0 480 0C440 0 400 0 360 0C320 0 280 0 240 0C200 0 160 0 120 0C80 0 40 0 20 0L0 0Z" fill="#fdba74"></path></svg>