<svg id="visual" viewBox="0 0 960 540" width="960" height="540" xmlns="http://www.w3.org/2000/svg" xmlns:xlink="http://www.w3.org/1999/xlink" version="1.1"><path d="M0 87L20 83.3C40 79.7 80 72.3 120 67.2C160 62 200 59 240 53C280 47 320 38 360 42.3C400 46.7 440 64.3 480 74.2C520 84 560 86 600 79.3C640 72.7 680 57.3 720 52.8C760 48.3 800 54.7 840 58.3C880 62 920 63 940 63.5L960 64L960 0L940 0C920 0 880 0 840 0C800 0 760 0 720 0C680 0 640 0 600 0C560 0 520 0 480 0C440 0 400 0 360 0C320 0 280 0 240 0C200 0 160 0 120 0C80 0 40 0 20 0L0 0Z" fill="#fdba74"></path><path d="M0 19L20 20.8C40 22.7 80 26.3 120 33.3C160 40.3 200 50.7 240 52C280 53.3 320 45.7 360 44C400 42.3 440 46.7 480 46.8C520 47 560 43 600 39.3C640 35.7 680 32.3 720 32C760 31.7 800 34.3 840 39.7C880 45 920 53 940 57L960 61L960 0L940 0C920 0 880 0 840 0C800 0 760 0 720 0C680 0 640 0 600 0C560 0 520 0 480 0C440 0 400 0 360 0C320 0 280 0 240 0C200 0 160 0 120 0C80 0 40 0 20 0L0 0Z" fill="#e2724b"></path><path d="M0 42L20 40.8C40 39.7 80 37.3 120 34.7C160 32 200 29 240 27C280 25 320 24 360 22.2C400 20.3 440 17.7 480 16C520 14.3 560 13.7 600 15.3C640 17 680 21 720 22.8C760 24.7 800 24.3 840 25.8C880 27.3 920 30.7 940 32.3L960 34L960 0L940 0C920 0 880 0 840 0C800 0 760 0 720 0C680 0 640 0 600 0C560 0 520 0 480 0C440 0 400 0 360 0C320 0 280 0 240 0C200 0 160 0 120 0C80 0 40 0 20 0L0 0Z" fill="#be123c"></path></svg>