<svg id="visual" viewBox="0 0 960 540" width="960" height="540" xmlns="http://www.w3.org/2000/svg" xmlns:xlink="http://www.w3.org/1999/xlink" version="1.1"><path d="M0 47L22.8 57.5C45.7 68 91.3 89 137 89.2C182.7 89.3 228.3 68.7 274 63C319.7 57.3 365.3 66.7 411.2 76.5C457 86.3 503 96.7 548.8 104.3C594.7 112 640.3 117 686 120C731.7 123 777.3 124 823 112.8C868.7 101.7 914.3 78.3 937.2 66.7L960 55L960 0L937.2 0C914.3 0 868.7 0 823 0C777.3 0 731.7 0 686 0C640.3 0 594.7 0 548.8 0C503 0 457 0 411.2 0C365.3 0 319.7 0 274 0C228.3 0 182.7 0 137 0C91.3 0 45.7 0 22.8 0L0 0Z" fill="#be123c"></path><path d="M0 30L22.8 32.5C45.7 35 91.3 40 137 51C182.7 62 228.3 79 274 80.5C319.7 82 365.3 68 411.2 61.5C457 55 503 56 548.8 54C594.7 52 640.3 47 686 51C731.7 55 777.3 68 823 76.7C868.7 85.3 914.3 89.7 937.2 91.8L960 94L960 0L937.2 0C914.3 0 868.7 0 823 0C777.3 0 731.7 0 686 0C640.3 0 594.7 0 548.8 0C503 0 457 0 411.2 0C365.3 0 319.7 0 274 0C228.3 0 182.7 0 137 0C91.3 0 45.7 0 22.8 0L0 0Z" fill="#d26e9d"></path><path d="M0 47L22.8 53.5C45.7 60 91.3 73 137 72.5C182.7 72 228.3 58 274 51C319.7 44 365.3 44 411.2 41C457 38 503 32 548.8 27.7C594.7 23.3 640.3 20.7 686 24.8C731.7 29 777.3 40 823 46C868.7 52 914.3 53 937.2 53.5L960 54L960 0L937.2 0C914.3 0 868.7 0 823 0C777.3 0 731.7 0 686 0C640.3 0 594.7 0 548.8 0C503 0 457 0 411.2 0C365.3 0 319.7 0 274 0C228.3 0 182.7 0 137 0C91.3 0 45.7 0 22.8 0L0 0Z" fill="#d5b6db"></path><path d="M0 23L22.8 20.8C45.7 18.7 91.3 14.3 137 14.2C182.7 14 228.3 18 274 23.2C319.7 28.3 365.3 34.7 411.2 32C457 29.3 503 17.7 548.8 14.5C594.7 11.3 640.3 16.7 686 17.8C731.7 19 777.3 16 823 21.5C868.7 27 914.3 41 937.2 48L960 55L960 0L937.2 0C914.3 0 868.7 0 823 0C777.3 0 731.7 0 686 0C640.3 0 594.7 0 548.8 0C503 0 457 0 411.2 0C365.3 0 319.7 0 274 0C228.3 0 182.7 0 137 0C91.3 0 45.7 0 22.8 0L0 0Z" fill="#f4f4f5"></path></svg>