<svg id="visual" viewBox="0 0 960 540" width="960" height="540" xmlns="http://www.w3.org/2000/svg" xmlns:xlink="http://www.w3.org/1999/xlink" version="1.1"><path d="M0 67L22.8 61.5C45.7 56 91.3 45 137 45.8C182.7 46.7 228.3 59.3 274 58.8C319.7 58.3 365.3 44.7 411.2 40.2C457 35.7 503 40.3 548.8 44.3C594.7 48.3 640.3 51.7 686 49.7C731.7 47.7 777.3 40.3 823 41C868.7 41.7 914.3 50.3 937.2 54.7L960 59L960 0L937.2 0C914.3 0 868.7 0 823 0C777.3 0 731.7 0 686 0C640.3 0 594.7 0 548.8 0C503 0 457 0 411.2 0C365.3 0 319.7 0 274 0C228.3 0 182.7 0 137 0C91.3 0 45.7 0 22.8 0L0 0Z" fill="#f4f4f5" stroke-linecap="round" stroke-linejoin="miter"></path></svg>